<mxfile host="app.diagrams.net" modified="2021-02-17T05:24:02.091Z" agent="5.0 (X11; Linux x86_64) AppleWebKit/537.36 (KHTML, like Gecko) Chrome/88.0.4324.150 Safari/537.36 OPR/74.0.3911.107" etag="D9kTRvZU8fZEuHL4CVxT" version="14.2.9" type="github">
  <diagram id="JJjBvnnCIH0pL6U2il4T" name="Page-1">
    <mxGraphModel dx="1382" dy="777" grid="1" gridSize="10" guides="1" tooltips="1" connect="1" arrows="1" fold="1" page="1" pageScale="1" pageWidth="827" pageHeight="1169" math="0" shadow="0">
      <root>
        <mxCell id="0" />
        <mxCell id="1" parent="0" />
        <mxCell id="Aklvlm6xV_j2-xvILIPw-1" value="A" style="ellipse;whiteSpace=wrap;html=1;aspect=fixed;fontSize=35;fillColor=#d5e8d4;strokeColor=#82b366;" vertex="1" parent="1">
          <mxGeometry x="360" y="360" width="80" height="80" as="geometry" />
        </mxCell>
        <mxCell id="Aklvlm6xV_j2-xvILIPw-2" value="B" style="ellipse;whiteSpace=wrap;html=1;aspect=fixed;fontSize=35;fillColor=#dae8fc;strokeColor=#6c8ebf;" vertex="1" parent="1">
          <mxGeometry x="280" y="480" width="80" height="80" as="geometry" />
        </mxCell>
        <mxCell id="Aklvlm6xV_j2-xvILIPw-3" value="C" style="ellipse;whiteSpace=wrap;html=1;aspect=fixed;fontSize=35;fillColor=#dae8fc;strokeColor=#6c8ebf;" vertex="1" parent="1">
          <mxGeometry x="440" y="480" width="80" height="80" as="geometry" />
        </mxCell>
        <mxCell id="Aklvlm6xV_j2-xvILIPw-4" value="D" style="ellipse;whiteSpace=wrap;html=1;aspect=fixed;fontSize=35;fillColor=#ffe6cc;strokeColor=#d79b00;" vertex="1" parent="1">
          <mxGeometry x="200" y="600" width="80" height="80" as="geometry" />
        </mxCell>
        <mxCell id="Aklvlm6xV_j2-xvILIPw-5" value="E" style="ellipse;whiteSpace=wrap;html=1;aspect=fixed;fontSize=35;fillColor=#ffe6cc;strokeColor=#d79b00;" vertex="1" parent="1">
          <mxGeometry x="360" y="600" width="80" height="80" as="geometry" />
        </mxCell>
        <mxCell id="Aklvlm6xV_j2-xvILIPw-6" value="F" style="ellipse;whiteSpace=wrap;html=1;aspect=fixed;fontSize=35;fillColor=#ffe6cc;strokeColor=#d79b00;" vertex="1" parent="1">
          <mxGeometry x="520" y="600" width="80" height="80" as="geometry" />
        </mxCell>
        <mxCell id="Aklvlm6xV_j2-xvILIPw-8" value="" style="endArrow=classic;html=1;strokeWidth=3;" edge="1" parent="1" source="Aklvlm6xV_j2-xvILIPw-1" target="Aklvlm6xV_j2-xvILIPw-2">
          <mxGeometry width="50" height="50" relative="1" as="geometry">
            <mxPoint x="390" y="530" as="sourcePoint" />
            <mxPoint x="440" y="480" as="targetPoint" />
          </mxGeometry>
        </mxCell>
        <mxCell id="Aklvlm6xV_j2-xvILIPw-9" value="" style="endArrow=classic;html=1;strokeWidth=3;" edge="1" parent="1" source="Aklvlm6xV_j2-xvILIPw-1" target="Aklvlm6xV_j2-xvILIPw-3">
          <mxGeometry width="50" height="50" relative="1" as="geometry">
            <mxPoint x="387.90153976913166" y="443.34153648867823" as="sourcePoint" />
            <mxPoint x="352.1880078490092" y="496.71798822648634" as="targetPoint" />
          </mxGeometry>
        </mxCell>
        <mxCell id="Aklvlm6xV_j2-xvILIPw-10" value="" style="endArrow=classic;html=1;strokeWidth=3;" edge="1" parent="1" source="Aklvlm6xV_j2-xvILIPw-2" target="Aklvlm6xV_j2-xvILIPw-4">
          <mxGeometry width="50" height="50" relative="1" as="geometry">
            <mxPoint x="432.09846023086834" y="443.3415364886787" as="sourcePoint" />
            <mxPoint x="467.8119921509908" y="496.71798822648634" as="targetPoint" />
          </mxGeometry>
        </mxCell>
        <mxCell id="Aklvlm6xV_j2-xvILIPw-11" value="" style="endArrow=classic;html=1;strokeWidth=3;" edge="1" parent="1" source="Aklvlm6xV_j2-xvILIPw-2" target="Aklvlm6xV_j2-xvILIPw-5">
          <mxGeometry width="50" height="50" relative="1" as="geometry">
            <mxPoint x="307.90153976914416" y="563.3415364886596" as="sourcePoint" />
            <mxPoint x="272.1880078490092" y="616.7179882264863" as="targetPoint" />
          </mxGeometry>
        </mxCell>
        <mxCell id="Aklvlm6xV_j2-xvILIPw-12" value="" style="endArrow=classic;html=1;strokeWidth=3;" edge="1" parent="1" source="Aklvlm6xV_j2-xvILIPw-3" target="Aklvlm6xV_j2-xvILIPw-6">
          <mxGeometry width="50" height="50" relative="1" as="geometry">
            <mxPoint x="352.0984602308554" y="563.3415364886591" as="sourcePoint" />
            <mxPoint x="387.8119921509908" y="616.7179882264863" as="targetPoint" />
          </mxGeometry>
        </mxCell>
      </root>
    </mxGraphModel>
  </diagram>
</mxfile>
